<?xml version="1.0" encoding="UTF-8"?>
<svg version="1.1" viewBox="0 0 2048 1852" width="1280" height="1280" xmlns="http://www.w3.org/2000/svg">
<path transform="translate(898)" d="m0 0h141l147 5 115 5 187 8 102 3 59 2 45 3 50 7 35 7 37 10 33 11 34 14 23 11 24 14 14 9 19 14 10 9 8 7 10 10 9 11 11 15 9 17 7 21 3 18 1 13v37l-4 49-2 25v38l3 28 8 59 5 42 4 52 1 20v47l-3 34-5 27-7 21-9 20-9 15-8 10-8 8-7 8-32 32-11 18-9 19-12 27-12 17-4 5-15 11-21 11-16 8-12 7-10 7v48l2 30 3 21 4 10 7 6 14 2 27 2 16 3 20 7 21 11 14 9 21 16 15 14 9 11 9 14 5 11 4 14 1 6v23l-3 33-1 25v38l7 30 8 25 2 16-1 18-5 26-13 48-2 16 4 14 6 36 2 24v49l-3 26-7 31-8 21-7 14-8 13-11 14-10 10-13 10-14 8-18 8-25 8-32 8-37 8-57 10-70 10-65 8-97 10-68 6-147 11-159 9-103 4-30 1-50 1h-39l-61-1-94-3-80-4-82-6-66-6-62-7-69-9-60-7-63-7-46-6-56-9-41-9-32-9-23-8-23-10-19-10-14-10-11-9-9-9-9-12-9-17-5-16-4-25v-25l2-26 7-49 4-32 1-13v-18l-2-16-6-21-9-28-4-18v-31l9-53v-21l-7-32-1-13v-31l3-21 5-17 9-16 10-13 7-11 5-12 3-15v-36l-4-34-8-49-1-8v-20l3-11 9-17 13-18 11-17 6-10 8-21 6-26 5-28v-6l-20-10-20-13-16-13-10-10-11-15-8-15-6-18-3-13-2-30-2-42-2-81v-55l5-20 11-26 7-20 2-13v-35l-5-57-1-16v-48l3-24 5-20 6-16 8-14 7-9 13-14 11-9 10-8 16-11 21-13 28-15 29-14 26-11 56-21 53-16 44-10 28-4 19-2 66-4 122-9 57-4 127-7z" fill="#363536"/>
<path transform="translate(1770,1500)" d="m0 0h59l33 4 23 5 24 8 23 11 18 12v11l-6 99-1 12-7 3-29 7-49 9-66 10-68 9-78 9-76 8-78 7-61 5-90 6-71 4-71 3-72 2-63 1h-54l-58-1-71-2-65-3-149-10-76-7-94-9-133-15-77-9-153-19-3-1v-25l2-52 2-23 4-16 4-6 8-7 9-3 21-3 47-5 74-10 19-2h47l108 14 58 5 65 5 126 7 108 4 79 2 52 1h208l61-1 60-2 96-4 99-7 36-4 40-6 101-18 55-8 37-4z" fill="#F6C68A"/>
<path transform="translate(952,106)" d="m0 0h147l116 2 78 2 77 3 78 4 72 4 44 2 33 1 105 1 37 2 29 4 26 6 33 11 43 18 22 10 15 8 19 9 16 8 8 5-1 32-4 94-1 2h-11l-393-27-48-3-93-4-94-3-86-2-58-1h-200l-106 2-105 3-181 7-83 5-86 7-152 14-73 6-27 2h-14l-1-5-2-30v-50l3-16 5-12 8-11 11-9 19-10 41-16 40-15 39-15 40-13 24-5 29-3 23-1 101-2 79-3 207-12 36-2 49-2z" fill="#F6C68A"/>
<path transform="translate(994,294)" d="m0 0h67l25 1 34 4 27 6 19 7 14 8 13 10 9 9 10 14 9 17 6 17 3 15 1 12v75l3 20 6 15 14 28 10 26 4 19v22l-3 13-3 1-16-2-11-4-5-3-7 49-10 48-16 64-5 19 20-2 7-1h9l55 16 13 7 8 7 5 8 3 10-1 33v16l3 16 4 6 13 11 13 13 10 15 8 17 5 15 3 15 1 8v25l-4 15-3 4-3-12-2-16-2-35-5-20-8-16-8-11-5-6-12-9-8-5-4-1-1 6-7 19-5 20-6 9-7 5-14 5h-2l2 19v17l-2 14-4 9-4 5-9 6-9 3 1-10 4-7 12-10 2-3v-19l-4-27-7-24-9-17-9-10-10-6-10-3h-8l-10 3-10 7-6 7-1 41-3 12-6 10-8 10-11 17-9 15-6 12-2-4v-18l4-11 9-13 4-4-1-6-7-8-16-8-10-6-6-6-15-44-3-7-12 3-21 6-25 3-16-2-16-5-18-8-15-10-10-8-10-9-8-7-18-18-9-11 2 14 2 15v30l-3 22-6 23-12 36-4 17v12l7 21 6 14v4h-11l-24-2-19-5-14-7-11-9-9-13-5-12-5-20-3-24-4-65-22 9-16 8-13 9-10 8-9 11-8 14-6 18-2 12-1 33-3 21-1 2h-4v-43l2-20 4-19 6-15 7-12 10-11 13-10 21-12 26-12 3-1 1-4 1-17 5-25 6-16 8-15 8-10 10-10 14-9 12-5 11-3-1-9-12-54-11-56-6-38v-8l-6 3-10 6-7 3h-8l-6-5-2-5-1-10 2-19 6-25 8-21 13-28 6-16 2-13v-83l3-19 4-14 6-14 8-11 12-14 12-11 13-10 15-9 12-5 17-5 21-3z" fill="#E3CA7E"/>
<path transform="translate(1037,555)" d="m0 0h13l26 2 25 4 20 5 24 8 20 9 25 13 20 12 8 9 2 6v25l-3 21-5 20-8 21-8 17-11 19-13 19-13 16-9 11-31 31-17 12-19 9-23 6-15 2h-20l-21-3-17-5-16-8-11-7-15-13-24-24-9-11-9-10-13-17-10-14-8-14-7-15-7-21-6-32-2-26v-18l14-8 24-13 36-15 28-9 25-6 34-6z" fill="#363536"/>
<path transform="translate(983,304)" d="m0 0h113l30 3 17 5 16 8 14 9 14 12 9 9 10 13 9 17 5 15 3 15 1 9 1 21v47l-1 18-6-2-32-16-22-8-36-8-34-5-21-2-17-1h-50l-27 2-34 5-36 9-25 9-25 12-9 5h-3l-1-9-1-21v-29l2-29 4-22 8-24 8-15 9-12 11-11 13-9 16-8 19-6 16-3z" fill="#363536"/>
<path transform="translate(1013,470)" d="m0 0h28l34 2 27 3 36 6 24 6 21 7 16 8 12 8 13 12 10 13 11 18 8 18 5 16 2 11v10l-5-1-27-14-40-24-16-8-18-8-31-10-22-5-30-4-14-1h-46l-31 3-23 4-19 5-26 9-22 10-28 17-15 9-29 16-6 3h-2l1-17 6-20 11-24 8-14 7-9 12-12 10-7 15-9 19-8 26-8 31-6 24-3z" fill="#363536"/>
<path transform="translate(888,1128)" d="m0 0h23l12 3 10 5 9 8 7 11 6 16 2 14v42h5l1 2-5 16-6 12-9 11-11 11-13 9-17 9-14 4-12 2h-27l-13-3-12-6-10-9-6-10-7-22-3-19-6-13v-15l4-13 7-14 8-11 10-11 14-11 17-9 18-6z" fill="#FCFBFA"/>
<path transform="translate(955,1336)" d="m0 0h56l25 3 22 6 12 7 7 8 3 7 1 8-2 12-5 13-9 15-10 14-2 6 3 14 5 12 13 25 12 21 2 3v3h-70l-8-16-12-25-7-9-3-2-1 9-9 41-1 2h-59l1-8 12-55 1-14-4-7v-9l4-22 13-58 1-3z" fill="#FCFBFA"/>
<path transform="translate(1162,1130)" d="m0 0h72l19 3 13 5 10 6 8 7 7 11 4 14 1 28 2 18 3 9 1 4-14 19-11 12-11 11-15 10-18 7-16 3-11 1h-69l1-10 5-23 5-21v-11l-4-19v-16l6-23 6-24 4-18z" fill="#FCFBFA"/>
<path transform="translate(653,1130)" d="m0 0h52l21 2 16 4 12 6 10 9 7 9 5 12 1 5v35l4 22-3 10-6 10-11 12-14 11-9 6-14 7-19 5-25 3h-58l-4-1 1-9 8-36 4-23-2-3-5-3-1-7 15-68 4-13 5-4z" fill="#FCFBFA"/>
<path transform="translate(995,1130)" d="m0 0h45l13 2 5 6 6 16 5 12 6 13v2h2l1-12 5-23 4-9 4-4 13-3h31l5 1-6 29-9 40-2 13v9l2 5 1 13-9 42-4 13-6 3h-41l-6-5-7-12-6-18-7-24-4-11-10 43-6 26-1 1h-32l-20-1 1-9 10-45 1-13-3-9v-11l6-31 11-48z" fill="#FCFBFA"/>
<path transform="translate(873,796)" d="m0 0h2l11 24 13 35 5 18 3 18 1 12v14l-3 19-8 28-12 36-3 15v20l3 14 2 6v5h-17l-14-3-12-5-10-8-7-8-8-16-6-21-3-18-2-23-3-53v-30l3-15 6-15 7-11 11-13 9-8 15-10z" fill="#363536"/>
<path transform="translate(802,1337)" d="m0 0h126l-2 13-7 32-66 1-3 6-2 8h19l40 1 1 4-4 18v7l2 9 4 3-1 3h-60l-5 24-1 3h35l31 1-1 10-5 22-3 6-5 4-3 1-36 2-79-1-4-1 5-25 7-29 1-6v-11l-2-6-1-9v-14l7-33 10-40z" fill="#FCFBF9"/>
<path transform="translate(687,1335)" d="m0 0h15l23 2 20 5 12 5 10 8 6 9 3 10v10l-3 14-6 15-11 22-8 14-5 4-21 2-32 8-2 1-7 30-4 17-1 2h-58l1-9 9-38 1-6v-17l-1-7v-23l7-33 10-38 2-4 19-2z" fill="#FCFBFA"/>
<path transform="translate(1333,1130)" d="m0 0 116 1v9l-3 16-5 10-7 6-6 2h-15l-13-2h-15l-5 3-3 6-1 5 1 1 55 1-5 29 4 10-1 3-54 1-4 24 60 1-1 11-6 30-1 1h-63l-57-1 2-12 6-28 3-20v-10l-3-10v-10l6-28 9-34 5-14z" fill="#FCFBFA"/>
<path transform="translate(1188,1336)" d="m0 0h29l26 5 23 7 1 4-11 42-2 4h-11l-11-4-15-9-7-3-11-1-11 3-11 6-9 10-8 15-4 12 1 5 8 10 9 17 5 5 6 3 10 1 49-14 8-2h4l-3 21-4 15-5 10-8 7-14 6-21 5-9 1h-21l-24-5-16-8-9-9-7-14-9-34-4-11-4-2v-9l7-21 8-16 9-14 11-13 12-10 17-9 14-4z" fill="#FCFBFA"/>
<path transform="translate(1395,1336)" d="m0 0h53l-2 6-12 16-9 11-13 16-9 11-14 17-7 10-3 16-5 23-7 30-4 20-1 1-58 1-2-2 15-75-5-2-8-4-6-15-19-55-6-20v-4h65l4 9 10 29v3l5-5 14-18 9-12 6-5z" fill="#FCFBFA"/>
<path transform="translate(1196,829)" d="m0 0h9l14 2 16 6 14 9 12 12 9 14 6 14 2 10v25l-4 15-8 17-6 9-3-1-13-23-7-8-14-7-12-3-1-3 5-4 1-5-2-11-2-16-12 3-1 1v8l4 21v5l-17 4-12 6-2 4-3 8-2 18-1 24-6-2-10-7-10-9-7-8-7-12-6-18-1-5v-26l4-15 8-16 7-9 9-9 11-7 10-5 12-4z" fill="#373536"/>
<path transform="translate(1046,331)" d="m0 0 9 1 34 13 11 6 2 2v10l-7 25-5 13-6 9-10 7-34 17-20 8-8 1h-21l-3-3-2-3v-5h-4l-1 2-14-1-4-5-3-8-1-13 7-24 3-13 4-5 11-7 24-12 25-11z" fill="#615948"/>
<path transform="translate(930,815)" d="m0 0 5 3 12 11 11 9 14 9 18 7 22 5 18 2h14l18-3 40-13h2l-2 16-5 21-6 11-4 7-3 18-12 5-15 4-16 2h-15l-18-3-15-5-15-8-20-14-12-11-7-8-4-8-4-16-1-13z" fill="#373536"/>
<path transform="translate(1232,809)" d="m0 0 5 1 10 13 9 8 19 10 9 7 4 6 2 7 2 15 7 18 6 13v9l-9 15-5 14-6 25-4 6-9 6-5 2h-3v-12l3-5 7-7 8-15 4-14 2-13v-14l-2-14-5-17-7-13-8-10-9-9-14-9-14-6-11-3-7-1h-23l-16 3-13 5-11 6-9 7-7 6-10 14-6 13-4 14-1 7v28l4 18 8 16 7 9 12 11 10 7 11 7-1 6-4 4-10-10-13-8-20-10-4-3-4-25-4-15-8-14-1-9 3-9 9-20 8-30 5-7 11-4 15-9 7-7 1-2h2v-2l11-8h21l6 1h13z" fill="#3A3938"/>
<path transform="translate(878,1171)" d="m0 0h11l7 5 3 6 1 4v26l2 15v12l-5 10-9 7-7 3-10 1-5-1-7-15-5-13-6-8v-7l4-14 6-12 9-12 9-6z" fill="#373536"/>
<path transform="translate(1211,1173)" d="m0 0h8l9 2 7 4 4 8v25l1 10 1 2 4 2-1 7-7 11-11 7-13 4-9 1v-9l1-15-4-11-1-13 3-17 6-16z" fill="#373636"/>
<path transform="translate(693,1171)" d="m0 0 21 4 4 9 2 9v31l5 2-1 7-4 8-7 8-12 5-16 2 1-25-5-8-2-3 1-7z" fill="#373636"/>
<path transform="translate(988,1360)" d="m0 0 18 3 5 3 3 7 1 5v27l5 2-1 6-5 8-7 6-11 4-16 1 1-21-4-6-3-3 2-9z" fill="#373636"/>
<path transform="translate(693,1358)" d="m0 0 14 2 8 2 4 10v30l6 1-1 6-6 9-9 6-11 3-13 1v-22l-6-7 1-7 12-32z" fill="#373636"/>
<path transform="translate(1917,1667)" d="m0 0 4 1-14 4h-11v-1z" fill="#E9C982"/>
<path transform="translate(874,334)" d="m0 0 3 1-9 8v-3z" fill="#ECC884"/>
</svg>
